<svg width="473" height="473" viewBox="0 0 473 473" fill="none" xmlns="http://www.w3.org/2000/svg">
<path d="M463.134 473H9.84961C4.41282 473 -0.00400925 468.583 -0.00400925 463.146C-0.00400925 457.71 4.41282 453.293 9.84961 453.293H463.134C468.57 453.293 472.987 457.71 472.987 463.146C472.987 468.583 468.57 473 463.134 473Z" fill="#F6B225"/>
<path d="M423.719 473H344.89C339.454 473 335.037 468.583 335.037 463.146V108.392C335.037 102.955 339.454 98.538 344.89 98.538H423.719C429.156 98.538 433.573 102.955 433.573 108.392V463.146C433.573 468.583 429.156 473 423.719 473ZM354.744 453.293H413.866V118.255H354.744V453.302V453.293Z" fill="#F6B225"/>
<path d="M463.134 118.254H9.84965C4.90067 118.254 0.7233 114.565 0.0758521 109.66C-0.553857 104.755 2.55921 100.143 7.34855 98.8836L381.804 0.336747C385.564 -0.665485 389.573 0.673781 392.012 3.70708L470.841 102.245C473.209 105.199 473.661 109.261 472.021 112.667C470.362 116.055 466.912 118.245 463.134 118.245V118.254ZM86.0001 98.5377H442.619L380.598 21.0022L86.0001 98.5377Z" fill="#F6B225"/>
<path d="M344.873 473C343.001 473 341.112 472.468 339.409 471.342C334.877 468.326 333.653 462.215 336.669 457.683L405.289 354.746H344.864C339.427 354.746 335.01 350.329 335.01 344.892C335.01 339.455 339.427 335.038 344.864 335.038H423.693C427.338 335.038 430.673 337.051 432.384 340.244C434.096 343.437 433.901 347.34 431.888 350.355L353.059 468.61C351.17 471.466 348.057 473.009 344.864 473.009L344.873 473Z" fill="#F6B225"/>
<path d="M344.873 354.755C343.001 354.755 341.112 354.222 339.409 353.096C334.877 350.081 333.653 343.97 336.669 339.437L405.289 236.5H344.864C339.427 236.5 335.01 232.083 335.01 226.646C335.01 221.209 339.427 216.793 344.864 216.793H423.693C427.338 216.793 430.673 218.806 432.384 221.999C434.096 225.192 433.901 229.094 431.888 232.11L353.059 350.364C351.17 353.22 348.057 354.764 344.864 354.764L344.873 354.755Z" fill="#F6B225"/>
<path d="M344.873 236.5C343.001 236.5 341.112 235.968 339.409 234.842C334.877 231.826 333.653 225.715 336.669 221.183L405.289 118.246H344.864C339.427 118.246 335.01 113.829 335.01 108.392C335.01 102.955 339.427 98.538 344.864 98.538H423.693C427.338 98.538 430.673 100.551 432.384 103.744C434.096 106.937 433.901 110.84 431.888 113.855L353.059 232.11C351.17 234.966 348.057 236.509 344.864 236.509L344.873 236.5Z" fill="#F6B225"/>
<path d="M384.305 118.255C378.868 118.255 374.451 113.838 374.451 108.401V9.8538C374.451 4.41692 378.868 0 384.305 0C389.742 0 394.158 4.41692 394.158 9.8538V108.392C394.158 113.829 389.742 118.246 384.305 118.246V118.255Z" fill="#F6B225"/>
</svg>
