<?xml version="1.0" encoding="UTF-8"?>
<svg id="Layer_1" data-name="Layer 1" xmlns="http://www.w3.org/2000/svg" viewBox="0 0 1040.31 416.27">
  <defs>
    <style>
      .cls-1 {
        fill: #fff;
        stroke-width: 0px;
      }
    </style>
  </defs>
  <path class="cls-1" d="M38.23,65.73l28.05-20.62v58.57l-28.05-17.88h50.6c9.35,0,17.28,1.79,23.79,5.36,6.51,3.57,11.46,9.35,14.85,17.32,3.39,7.98,5.09,18.38,5.09,31.21s-1.65,23.01-4.95,31.07c-3.3,8.07-8.8,14.16-16.5,18.29-7.7,4.12-18.06,6.19-31.07,6.19H3.58v-65.73h77l-14.3,23.38v-59.4l14.3,15.95h-36.02c-9.53,0-17.6-1.83-24.2-5.5-6.6-3.67-11.64-9.49-15.12-17.46-3.48-7.97-5.23-18.19-5.23-30.66,0-13.75,1.83-24.7,5.5-32.86,3.67-8.16,9.44-14.02,17.33-17.6C30.71,1.79,40.98,0,53.62,0h73.43v65.73H38.23Z"/>
  <path class="cls-1" d="M187.27,112.48v31.62h28.88l7.7,17.6h-28.05v3.02c0,10.63-2.48,18.88-7.43,24.75-4.95,5.87-12.19,8.8-21.72,8.8-10.63,0-18.56-3.34-23.79-10.04-5.23-6.69-7.84-15.9-7.84-27.64v-9.35c0-13.02,3.34-22.73,10.04-29.15,6.69-6.42,16.27-9.62,28.74-9.62h13.48ZM204.32,161.42v-87.17l21.73,24.75h-86.35v-51.15h67.92c16.87,0,29.61,4.72,38.23,14.16,8.62,9.44,12.93,23.24,12.93,41.39v91.85h-45.1l-9.35-33.83Z"/>
  <path class="cls-1" d="M268.4,0h54.73v195.25h-54.73V0Z"/>
  <path class="cls-1" d="M345.39,195.25l-14.3-99v-48.4h53.08l4.67,100.65h19.25v46.75h-62.7ZM379.22,148.5h20.35l4.95-100.65h52.8v48.4l-14.3,99h-63.8v-46.75Z"/>
  <path class="cls-1" d="M504.89,111.38h53.35l-22.27,11.27v-37.4h-19.8v58.85h65.72v51.15h-54.45c-22.73,0-39.51-6.28-50.32-18.84-10.82-12.56-16.23-31.3-16.23-56.24,0-17.6,2.48-31.94,7.42-43.04,4.95-11.09,12.33-19.25,22.14-24.48,9.81-5.23,22.04-7.84,36.71-7.84,13.38,0,24.34,2.38,32.86,7.15,8.53,4.77,14.76,11.82,18.7,21.17,3.94,9.35,5.91,20.9,5.91,34.65v21.18h-79.75v-17.6Z"/>
  <path class="cls-1" d="M639.91,80.3h33.55v25.03h-25.57v89.92h-54.73V47.85h36.03l10.72,32.45ZM706.88,54.17c5.96,6.23,8.94,14.94,8.94,26.12h33.55v25.03h-28.88v89.92h-54.72v-89.92h-17.6v-25.03c0-11.18,2.98-19.89,8.94-26.12,5.96-6.23,14.34-9.35,25.16-9.35s18.65,3.12,24.61,9.35ZM784.15,54.31c5.96,6.33,8.94,15.26,8.94,26.81v114.12h-54.72v-89.92h-12.92v-25.03c0-11.18,3.07-19.89,9.21-26.12,6.14-6.23,14.62-9.35,25.44-9.35,10.08,0,18.1,3.16,24.06,9.49Z"/>
  <path class="cls-1" d="M827.05,189.89c-9.45-5.59-16.46-14.03-21.04-25.3-4.58-11.27-6.88-25.62-6.88-43.04s2.29-31.49,6.88-42.76c4.58-11.27,11.59-19.75,21.04-25.44,9.44-5.68,21.49-8.52,36.16-8.52,15.4,0,28,2.8,37.81,8.39,9.81,5.59,17,13.98,21.59,25.16,4.58,11.18,6.88,25.48,6.88,42.9s-2.34,31.81-7.01,43.18c-4.67,11.37-11.92,19.85-21.73,25.44-9.81,5.59-22.32,8.39-37.54,8.39s-26.72-2.8-36.16-8.39ZM854.41,152.35h19.8v-61.6h-19.8v61.6Z"/>
  <path class="cls-1" d="M1023.53,116.74c5.5,2.84,9.67,7.2,12.51,13.06,2.84,5.87,4.26,13.38,4.26,22.55,0,14.67-3.21,25.48-9.62,32.45-6.42,6.97-16.32,10.45-29.7,10.45h-65.17v-51.15h50.6v-13.48h-15.67c-8.62,0-15.77-1.42-21.45-4.26-5.68-2.84-9.99-7.24-12.92-13.2-2.93-5.96-4.4-13.7-4.4-23.24,0-14.3,3.25-24.89,9.76-31.76,6.51-6.88,16.45-10.31,29.84-10.31h64.08v51.15h-49.23v13.48h16.5c8.25,0,15.12,1.42,20.62,4.26Z"/>
  <path class="cls-1" d="M109.31,329.38h53.35l-22.27,11.27v-37.4h-19.8v58.85h65.72v51.15h-54.45c-22.73,0-39.51-6.28-50.33-18.84-10.82-12.56-16.23-31.3-16.23-56.24,0-17.6,2.48-31.94,7.43-43.04,4.95-11.09,12.33-19.25,22.14-24.48,9.81-5.23,22.04-7.84,36.71-7.84,13.38,0,24.34,2.38,32.86,7.15,8.52,4.77,14.76,11.82,18.7,21.17,3.94,9.35,5.91,20.9,5.91,34.65v21.18h-79.75v-17.6Z"/>
  <path class="cls-1" d="M285.04,334.74c5.5,2.84,9.67,7.2,12.51,13.06,2.84,5.87,4.26,13.38,4.26,22.55,0,14.67-3.21,25.48-9.62,32.45-6.42,6.97-16.32,10.45-29.7,10.45h-65.17v-51.15h50.6v-13.48h-15.68c-8.62,0-15.77-1.42-21.45-4.26-5.69-2.84-9.99-7.24-12.93-13.2-2.93-5.96-4.4-13.7-4.4-23.24,0-14.3,3.25-24.89,9.76-31.76,6.51-6.88,16.45-10.31,29.84-10.31h64.08v51.15h-49.23v13.48h16.5c8.25,0,15.12,1.42,20.62,4.26Z"/>
  <path class="cls-1" d="M329.72,405.55c-8.53-5.13-14.94-13.2-19.25-24.2-4.31-11-6.46-25.3-6.46-42.9s2.2-30.89,6.6-41.53c4.4-10.63,11-18.47,19.8-23.51,8.8-5.04,19.89-7.56,33.27-7.56h39.05v61.32h-61.05l17.05-34.92v97.08l-17.05-36.58h61.05v60.5h-40.15c-13.38,0-24.34-2.57-32.86-7.7Z"/>
  <path class="cls-1" d="M419.09,406.24c-5.41-6.69-8.11-17-8.11-30.94v-109.45h54.73v97.35l9.07,1.1.55,16.5c0,11.37-2.89,20.12-8.66,26.26-5.77,6.14-13.71,9.21-23.79,9.21s-18.38-3.34-23.79-10.04ZM483.58,380.8h-27.5v-18.7h27.5v-96.25h54.72v147.4h-45.1l-9.62-32.45Z"/>
  <path class="cls-1" d="M588.35,329.38h53.35l-22.28,11.27v-37.4h-19.8v58.85h65.72v51.15h-54.45c-22.73,0-39.51-6.28-50.32-18.84-10.82-12.56-16.23-31.3-16.23-56.24,0-17.6,2.48-31.94,7.42-43.04,4.95-11.09,12.33-19.25,22.14-24.48,9.81-5.23,22.04-7.84,36.71-7.84,13.38,0,24.34,2.38,32.86,7.15,8.53,4.77,14.76,11.82,18.7,21.17,3.94,9.35,5.91,20.9,5.91,34.65v21.18h-79.75v-17.6Z"/>
  <path class="cls-1" d="M676.62,218h54.73v195.25h-54.73v-195.25Z"/>
  <path class="cls-1" d="M789.37,330.48v31.62h28.88l7.7,17.6h-28.05v3.02c0,10.63-2.47,18.88-7.42,24.75s-12.19,8.8-21.72,8.8c-10.63,0-18.56-3.34-23.79-10.04-5.22-6.69-7.84-15.9-7.84-27.64v-9.35c0-13.02,3.34-22.73,10.04-29.15,6.69-6.42,16.27-9.62,28.74-9.62h13.48ZM806.42,379.42v-87.17l21.72,24.75h-86.35v-51.15h67.92c16.87,0,29.61,4.72,38.23,14.16,8.62,9.44,12.92,23.24,12.92,41.39v91.85h-45.1l-9.35-33.83Z"/>
  <path class="cls-1" d="M958.22,334.74c5.5,2.84,9.67,7.2,12.51,13.06,2.84,5.87,4.26,13.38,4.26,22.55,0,14.67-3.21,25.48-9.62,32.45-6.42,6.97-16.32,10.45-29.7,10.45h-65.17v-51.15h50.6v-13.48h-15.67c-8.62,0-15.77-1.42-21.45-4.26-5.68-2.84-9.99-7.24-12.92-13.2-2.93-5.96-4.4-13.7-4.4-23.24,0-14.3,3.25-24.89,9.76-31.76,6.51-6.88,16.45-10.31,29.84-10.31h64.08v51.15h-49.23v13.48h16.5c8.25,0,15.12,1.42,20.62,4.26Z"/>
</svg>