<svg id="Isolation_Mode" data-name="Isolation Mode" xmlns="http://www.w3.org/2000/svg" viewBox="0 0 796.09 412.75">
  <defs>
    <style>
      .cls-1 {
        fill: #fff;
        stroke-width: 0px;
      }
    </style>
  </defs>
  <path class="cls-1" d="M126.81,105.58c-3.3-7.76-8.12-13.38-14.45-16.86-6.33-3.48-14.05-5.22-23.15-5.22h-21.95v-19.54h59.15V0H54.95C42.64,0,32.65,1.74,24.98,5.22c-7.67,3.48-13.29,9.19-16.86,17.13-3.57,7.94-5.35,18.6-5.35,31.98,0,12.13,1.69,22.08,5.08,29.84,3.39,7.76,8.3,13.43,14.72,16.99,6.42,3.57,14.27,5.35,23.55,5.35h21.14v19.54H6.24v63.96h74.4c12.67,0,22.75-2.01,30.24-6.02,7.49-4.01,12.85-9.94,16.06-17.8,3.21-7.85,4.82-17.93,4.82-30.24s-1.65-22.61-4.95-30.38Z"/>
  <path class="cls-1" d="M245.77,60.35c-8.39-9.19-20.79-13.78-37.2-13.78h-66.1v49.78h62.89v43.89h-16.59v-30.78h-13.11c-12.14,0-21.46,3.12-27.97,9.37-6.52,6.25-9.77,15.7-9.77,28.37v9.1c0,11.42,2.54,20.39,7.63,26.9,5.09,6.52,12.8,9.77,23.15,9.77,9.27,0,16.33-2.86,21.14-8.56,4.82-5.71,7.22-13.74,7.22-24.09v-2.94h8.37l9.02,32.65h43.89v-89.39c0-17.66-4.19-31.09-12.58-40.28Z"/>
  <rect class="cls-1" x="271.46" width="53.26" height="190.02"/>
  <polygon class="cls-1" points="407.68 46.57 402.86 144.52 392.42 144.52 387.87 46.57 336.22 46.57 336.22 93.67 350.14 190.01 383.06 190.01 411.16 190.01 445.15 190.01 459.06 93.67 459.06 46.57 407.68 46.57"/>
  <path class="cls-1" d="M586.72,125.52v-20.61c0-13.38-1.92-24.62-5.75-33.72-3.84-9.1-9.9-15.96-18.2-20.61-8.3-4.64-18.96-6.96-31.98-6.96-14.28,0-26.18,2.54-35.73,7.63-9.55,5.08-16.73,13.03-21.54,23.82-4.82,10.8-7.23,24.76-7.23,41.88,0,24.27,5.26,42.51,15.79,54.73,10.53,12.22,26.85,18.33,48.98,18.33h52.99v-49.78h-63.96v-14.72h66.64ZM539.35,82.96v25.42h-19.27v-25.42h19.27Z"/>
  <path class="cls-1" d="M784.62,52.86c-5.8-6.16-13.61-9.23-23.42-9.23-10.53,0-18.78,3.04-24.76,9.1-5.98,6.07-8.97,14.54-8.97,25.42h-9.37c0-10.88-2.9-19.36-8.7-25.42-5.8-6.06-13.78-9.1-23.95-9.1s-18.69,3.04-24.49,9.1c-5.8,6.07-8.7,14.54-8.7,25.42h-8.03l-10.44-31.58h-35.06v143.45h53.26v-87.51h17.4v87.51h53.26v-87.51h17.4v87.51h53.26v-111.06c0-11.24-2.9-19.94-8.7-26.09Z"/>
  <path class="cls-1" d="M123.28,343.71v-21.09c0-13.7-1.97-25.2-5.89-34.52-3.93-9.32-10.14-16.34-18.63-21.09-8.49-4.75-19.41-7.12-32.74-7.12-14.61,0-26.8,2.6-36.57,7.81-9.77,5.21-17.12,13.33-22.05,24.38-4.93,11.05-7.4,25.34-7.4,42.87,0,24.84,5.39,43.52,16.16,56.02,10.77,12.51,27.49,18.77,50.13,18.77h54.24v-50.96H55.07v-15.07h68.21ZM74.79,300.16v26.03h-19.72v-26.03h19.72Z"/>
  <path class="cls-1" d="M222.72,331.52c5.48,2.83,9.63,7.17,12.47,13.01,2.83,5.85,4.25,13.34,4.25,22.46,0,14.61-3.2,25.39-9.59,32.33-6.39,6.94-16.26,10.41-29.59,10.41h-64.93v-50.95h50.41v-13.42h-15.61c-8.59,0-15.71-1.41-21.37-4.25-5.66-2.83-9.96-7.21-12.88-13.15-2.92-5.93-4.38-13.65-4.38-23.15,0-14.24,3.24-24.79,9.72-31.64,6.48-6.85,16.39-10.27,29.72-10.27h63.83v50.95h-49.04v13.42h16.44c8.22,0,15.07,1.42,20.55,4.25"/>
  <path class="cls-1" d="M343.81,323.99v-61.09h-38.9c-13.33,0-24.38,2.51-33.15,7.53-8.77,5.02-15.34,12.83-19.73,23.42-4.38,10.59-6.57,24.38-6.57,41.37s2.15,31.78,6.44,42.74c4.29,10.96,10.68,19,19.18,24.11,8.49,5.11,19.4,7.67,32.74,7.67h40v-60.27h-43.83v-25.48h43.83Z"/>
  <path class="cls-1" d="M379.55,404.4c-9.41-5.57-16.39-13.97-20.96-25.2-4.57-11.23-6.85-25.52-6.85-42.87s2.28-31.37,6.85-42.6c4.56-11.23,11.55-19.68,20.96-25.34,9.41-5.66,21.41-8.49,36.03-8.49,15.34,0,27.9,2.79,37.67,8.36,9.77,5.57,16.94,13.93,21.5,25.07,4.56,11.14,6.85,25.39,6.85,42.74s-2.33,31.69-6.99,43.01c-4.66,11.33-11.87,19.77-21.64,25.34-9.77,5.57-22.24,8.36-37.39,8.36s-26.62-2.79-36.03-8.36M406.81,367h19.72v-61.36h-19.72v61.36Z"/>
  <rect class="cls-1" x="492.28" y="215.23" width="54.52" height="194.51"/>
  <path class="cls-1" d="M679.94,343.71v-21.09c0-13.7-1.96-25.2-5.89-34.52-3.93-9.32-10.14-16.34-18.63-21.09-8.49-4.75-19.41-7.12-32.74-7.12-14.61,0-26.8,2.6-36.57,7.81-9.77,5.21-17.12,13.33-22.05,24.38-4.93,11.05-7.4,25.34-7.4,42.87,0,24.84,5.39,43.52,16.16,56.02,10.77,12.51,27.48,18.77,50.13,18.77h54.24v-50.96h-65.47v-15.07h68.21ZM631.45,300.16v26.03h-19.72v-26.03h19.72Z"/>
  <path class="cls-1" d="M779.38,331.52c5.48,2.83,9.63,7.17,12.46,13.01,2.83,5.85,4.25,13.34,4.25,22.46,0,14.61-3.2,25.39-9.59,32.33-6.4,6.94-16.26,10.41-29.59,10.41h-64.93v-50.95h50.41v-13.42h-15.61c-8.59,0-15.71-1.41-21.37-4.25-5.66-2.83-9.96-7.21-12.88-13.15-2.92-5.93-4.38-13.65-4.38-23.15,0-14.24,3.24-24.79,9.72-31.64,6.48-6.85,16.39-10.27,29.72-10.27h63.83v50.95h-49.04v13.42h16.44c8.22,0,15.07,1.42,20.55,4.25"/>
</svg>