<svg width="354" height="381" viewBox="0 0 354 381" fill="none" xmlns="http://www.w3.org/2000/svg">
<path d="M175.947 316.763C180.773 316.763 185.194 312.75 185.194 307.525C185.194 302.301 181.177 298.288 175.947 298.288H146.606C141.78 298.288 137.358 302.301 137.358 307.525C137.358 312.75 141.375 316.763 146.606 316.763H175.947Z" fill="#F6B225"/>
<path d="M184.79 260.962H155.449C150.623 260.962 146.201 264.974 146.201 270.199C146.201 275.424 150.219 279.436 155.449 279.436H184.79C189.616 279.436 194.038 275.424 194.038 270.199C194.038 264.974 190.021 260.962 184.79 260.962Z" fill="#F6B225"/>
<path d="M184.79 336.436H155.449C150.623 336.436 146.201 340.449 146.201 345.673C146.201 350.898 150.219 354.911 155.449 354.911H184.79C189.616 354.911 194.038 350.898 194.038 345.673C194.038 340.449 190.021 336.436 184.79 336.436Z" fill="#F6B225"/>
<path d="M279.647 233.66H279.243L257.943 70.2563C271.208 65.0384 280.854 51.7883 280.854 36.5319C280.854 16.4548 264.373 0 244.281 0C229.809 0 217.75 8.42938 211.725 20.4743L-17.7849 110.404C-19.7935 111.205 -21 113.211 -21 115.224V214.788C-21 218.801 -16.5783 221.615 -12.9587 219.205L236.239 71.8655C237.446 72.2695 238.652 72.2695 240.256 72.2695L261.556 235.674C229.802 244.103 206.09 273.013 206.09 307.135C206.09 348.084 239.448 381.007 280.045 381.007C320.642 381.007 354 347.686 354 307.135C354 266.584 320.642 233.667 279.64 233.667L279.647 233.66ZM244.274 18.468C254.324 18.468 262.762 26.5002 262.762 36.9359C262.762 47.3716 254.721 55.4039 244.274 55.4039C233.826 55.4039 225.785 47.3716 225.785 36.9359C225.785 26.5002 234.224 18.468 244.274 18.468ZM-3.31326 192.712V136.507L43.3098 165.013L-3.31326 192.719V192.712ZM50.9466 148.148L5.53011 120.442L59.79 99.564L50.9466 148.141V148.148ZM69.031 149.75L77.8744 101.57L118.869 120.442L69.031 149.75ZM122.084 101.974L90.3305 87.5191L131.73 71.4615L122.084 101.974ZM138.969 108.397L151.028 69.0511L183.179 81.8972L138.969 108.397ZM168.714 57.013L208.105 41.7566C209.312 49.3848 212.527 56.609 217.75 62.2309L203.279 70.6603L168.714 57.013ZM279.647 363.737C248.695 363.737 223.776 338.846 223.776 307.929C223.776 277.012 249.1 252.121 279.647 252.121C310.194 252.121 335.518 277.012 335.518 307.929C335.518 338.846 310.599 363.737 279.647 363.737Z" fill="#F6B225"/>
<path d="M279.647 269.795C274.821 269.795 270.399 273.808 270.399 279.032C270.399 284.257 274.417 288.27 279.647 288.27C290.499 288.27 299.747 297.103 299.747 308.347C299.747 313.168 303.764 317.584 308.995 317.584C313.821 317.584 318.243 313.572 318.243 308.347C317.838 286.668 300.96 269.802 279.654 269.802L279.647 269.795Z" fill="#F6B225"/>
</svg>
